<?xml version="1.0" encoding="utf-8"?><!DOCTYPE svg PUBLIC "-//W3C//DTD SVG 1.1//EN" "http://www.w3.org/Graphics/SVG/1.1/DTD/svg11.dtd"><svg viewBox="0 0 512 512" xmlns="http://www.w3.org/2000/svg" xmlns:xlink="http://www.w3.org/1999/xlink"><style>:root>svg{display:none}:root>svg:target{display:block}</style><svg viewBox="0 0 22 9" id="arrow" xmlns="http://www.w3.org/2000/svg"><defs><style>.acls-1{fill:#fff;fill-rule:evenodd}</style></defs><path class="acls-1" d="M.3 5.472h16.948l-.1 2.857a.292.292 0 000 .41l.172.172a.28.28 0 00.2.086.285.285 0 00.2-.084l4.193-4.211A.292.292 0 0022 4.5a.283.283 0 00-.084-.2L17.723.087a.289.289 0 00-.407 0l-.172.173a.287.287 0 00-.084.2.278.278 0 00.084.2l.113 2.865H.292A.3.3 0 000 3.82v1.37a.292.292 0 00.3.282z"/></svg><svg viewBox="0 0 6.1 10.97" id="arrow-right" xmlns="http://www.w3.org/2000/svg"><defs><style>.bcls-1{fill:#262626;fill-rule:evenodd}</style></defs><path class="bcls-1" d="M.55 10.97a.53.53 0 01-.41-.19.6.6 0 01-.15-.4.631.631 0 01.17-.43l4.55-4.47L.16 1A.607.607 0 01-.01.58.629.629 0 01.14.17a.559.559 0 01.8-.02l4.98 4.9.01.01a.657.657 0 01.12.17.7.7 0 01.05.25.742.742 0 01-.05.25.61.61 0 01-.12.16c0 .01-.01.01-.01.02l-4.98 4.9a.589.589 0 01-.39.16z"/></svg><svg xmlns:svgjs="http://svgjs.com/svgjs" viewBox="0 0.043 20 17.915" id="basket-icon" xmlns="http://www.w3.org/2000/svg"><svg width="20" height="18" viewBox="2 1.998 18.956 16.98"><path paint-order="stroke fill markers" fill-rule="evenodd" d="M7.526 18.978c-.536 0-1.063-.21-1.461-.607a2.066 2.066 0 01-.453-2.26 2.068 2.068 0 011.915-1.28h.006c.55 0 1.07.214 1.46.602.393.394.609.913.609 1.467.002.84-.5 1.593-1.277 1.917-.258.108-.53.16-.799.16zm.007-2.963h-.004a.887.887 0 00-.628 1.518.89.89 0 10.632-1.518zm8.385 2.963c-.537 0-1.064-.21-1.461-.607a2.065 2.065 0 01-.452-2.26 2.065 2.065 0 011.913-1.28c.546-.04 1.08.218 1.468.603.392.393.607.912.607 1.466a2.064 2.064 0 01-1.274 1.917c-.26.108-.532.16-.8.16zm.006-2.963h-.001c-.331.032-.685.215-.823.548a.89.89 0 10.824-.548zm-11.279.163a.592.592 0 01-.536-.843c.579-1.24 1.627-1.973 3.054-2.15L6.108 7.792a.593.593 0 011.163-.227l1.091 5.578h9.423l1.807-6.771H6.29A4.354 4.354 0 012.007 2.68a.591.591 0 111.171-.175 3.165 3.165 0 003.115 2.682h14.07a.592.592 0 01.573.745l-2.123 7.956a.594.594 0 01-.573.44H7.885a.044.044 0 00-.023 0c-1.33 0-2.205.493-2.68 1.51a.593.593 0 01-.537.34z"/></svg></svg><svg viewBox="0 0 350 350" id="calendar" xmlns="http://www.w3.org/2000/svg"><path d="M319.082 348.156H27.126c-11.08 0-20.096-9.017-20.096-20.096V125.733h332.147V328.06c.004 11.079-9.013 20.096-20.095 20.096zM18.572 137.275V328.06c0 4.718 3.835 8.554 8.554 8.554h291.956c4.718 0 8.554-3.836 8.554-8.554V137.275H18.57zm174.365 175.649h-39.663c-7.32 0-13.276-5.956-13.276-13.273V259.99c0-7.317 5.955-13.273 13.276-13.273h39.659c7.317 0 13.273 5.956 13.273 13.273v39.662c.003 7.321-5.952 13.273-13.27 13.273zm-39.663-54.666c-.937 0-1.735.793-1.735 1.73v39.663c0 .938.794 1.731 1.735 1.731h39.659c.937 0 1.73-.793 1.73-1.73v-39.663c0-.938-.793-1.731-1.73-1.731h-39.659zm-49.796 54.666H63.816c-7.317 0-13.273-5.956-13.273-13.273V259.99c0-7.317 5.956-13.273 13.273-13.273h39.662c7.318 0 13.273 5.956 13.273 13.273v39.662c0 7.321-5.952 13.273-13.273 13.273zm-39.662-54.666c-.937 0-1.731.793-1.731 1.73v39.663c0 .938.794 1.731 1.731 1.731h39.662c.938 0 1.731-.793 1.731-1.73v-39.663c0-.938-.793-1.731-1.73-1.731H63.815zm218.575-24.85h-39.658c-7.317 0-13.273-5.955-13.273-13.272v-39.663c0-7.32 5.956-13.276 13.273-13.276h39.658c7.321 0 13.277 5.955 13.277 13.276v39.659c0 7.32-5.956 13.276-13.277 13.276zm-39.658-54.67c-.938 0-1.731.798-1.731 1.735v39.659c0 .937.793 1.73 1.73 1.73h39.66c.937 0 1.734-.793 1.734-1.73v-39.659c0-.937-.797-1.735-1.735-1.735h-39.658zm-49.796 54.67h-39.663c-7.32 0-13.276-5.955-13.276-13.272v-39.663c0-7.32 5.955-13.276 13.276-13.276h39.659c7.317 0 13.273 5.955 13.273 13.276v39.659c.003 7.32-5.952 13.276-13.27 13.276zm-39.663-54.67c-.937 0-1.735.798-1.735 1.735v39.659c0 .937.794 1.73 1.735 1.73h39.659c.937 0 1.73-.793 1.73-1.73v-39.659c0-.937-.793-1.735-1.73-1.735h-39.659zm-49.796 54.67H63.816c-7.317 0-13.273-5.955-13.273-13.272v-39.663c0-7.32 5.956-13.276 13.273-13.276h39.662c7.318 0 13.273 5.955 13.273 13.276v39.659c0 7.32-5.952 13.276-13.273 13.276zm-39.662-54.67c-.937 0-1.731.798-1.731 1.735v39.659c0 .937.794 1.73 1.731 1.73h39.662c.938 0 1.731-.793 1.731-1.73v-39.659c0-.937-.793-1.735-1.73-1.735H63.815zM339.181 114.273H7.03V61.342c0-11.083 9.017-20.096 20.096-20.096H77.08V31.214c0-18.283 14.875-33.158 33.158-33.158 18.287 0 33.163 14.875 33.163 33.158v10.028h59.408V31.214c0-18.283 14.875-33.158 33.158-33.158s33.158 14.875 33.158 33.158v10.028h49.956c11.078 0 20.095 9.017 20.095 20.096v52.935zm-320.61-11.541H327.64v-41.39c0-4.719-3.836-8.554-8.554-8.554h-61.497V31.214c0-11.923-9.698-21.617-21.617-21.617-11.923 0-21.617 9.698-21.617 21.617v21.57H131.86v-21.57c0-11.923-9.698-21.617-21.62-21.617s-21.617 9.698-21.617 21.617v21.57H27.126c-4.719 0-8.555 3.84-8.555 8.554v41.394z"/></svg><svg viewBox="0 0 49.13 43.84" id="credit-card" xmlns="http://www.w3.org/2000/svg"><defs><style>.ecls-1{fill:#a3bbc8;fill-rule:evenodd}</style></defs><path id="ecredit-card" class="ecls-1" d="M1444.43 1042.32a.83.83 0 00-.84.83v8.27a2.164 2.164 0 01-2.16 2.16h-39.34a2.164 2.164 0 01-2.16-2.16v-11.92h27.29a.84.84 0 100-1.68h-27.29v-5.47h9.87a.828.828 0 00.83-.83.837.837 0 00-.83-.84h-9.87v-2.88a2.166 2.166 0 012.16-2.17h25.13a.835.835 0 100-1.67h-25.13a3.839 3.839 0 00-3.83 3.84v23.62a3.837 3.837 0 003.83 3.83h39.34a3.837 3.837 0 003.83-3.83v-8.27a.828.828 0 00-.83-.83zm-17.21-11.64H1413a.837.837 0 00-.83.84.828.828 0 00.83.83h14.22a.837.837 0 00.84-.83.845.845 0 00-.84-.84zm-9.24 11.56h-14.27a.835.835 0 000 1.67h14.27a.835.835 0 100-1.67zm-6.08 3.99h-8.19a.835.835 0 000 1.67h8.19a.835.835 0 000-1.67zm34.63-13.61a.832.832 0 00.84-.84v-4.77a3.038 3.038 0 00-2.39-2.97v-6.02a6.6 6.6 0 10-13.19 0v6.02a3.053 3.053 0 00-2.4 2.97v10.75a3.045 3.045 0 003.04 3.04h11.9a3.039 3.039 0 003.04-3.04v-3.19a.835.835 0 00-1.67 0v3.19a1.379 1.379 0 01-1.37 1.37h-11.9a1.379 1.379 0 01-1.37-1.37v-10.75a1.379 1.379 0 011.37-1.37h11.9a1.379 1.379 0 011.37 1.37v4.77a.83.83 0 00.83.84zm-3.23-8.65h-9.84v-5.95a4.92 4.92 0 119.84 0v5.95zm-4.92 4.32a3.092 3.092 0 00-.83 6.07v2.04a.83.83 0 00.83.84.839.839 0 00.84-.84v-2.04a3.094 3.094 0 00-.84-6.07zm0 4.52a1.425 1.425 0 111.42-1.43 1.428 1.428 0 01-1.42 1.43z" transform="translate(-1398.25 -1011.41)"/></svg><svg viewBox="0 0 38.062 2" id="dash" xmlns="http://www.w3.org/2000/svg"><defs><style>.fcls-1{fill:#a3bbc8}</style></defs><rect id="fBG" class="fcls-1" width="38.062" height="2" rx="1" ry="1"/></svg><svg viewBox="0 0 49.126 29.35" id="delivery-truck" xmlns="http://www.w3.org/2000/svg"><defs><style>.gcls-1{fill:#a3bbc8;fill-rule:evenodd}</style></defs><path id="gdelivery-truck" class="gcls-1" d="M812.816 1025.33h-6.126a.79.79 0 000 1.58h6.126a.79.79 0 000-1.58zm.524 11.01h-5.6a.785.785 0 100 1.57h5.6a.785.785 0 100-1.57zm-2.094-4.72H804.6a.79.79 0 000 1.58h6.65a.79.79 0 00-.004-1.58zm0 11.01h-.646a.785.785 0 100 1.57h.644a.785.785 0 10.002-1.57zm-3.263 0H804.6a.785.785 0 100 1.57h3.387a.785.785 0 10-.004-1.57zm36.86-19.86h-6.657v-1.42a.784.784 0 00-.786-.78h-12.175a.785.785 0 100 1.57h11.39v17.22a.786.786 0 101.571 0v-15.02h6.657a6.519 6.519 0 016.509 6.52v13.29h-2a4.974 4.974 0 00-9.824 0h-1.345v-1.12a.786.786 0 10-1.571 0v1.12h-8.336a4.974 4.974 0 00-9.823 0h-1.634v-22.01h5.261a.785.785 0 100-1.57h-6.046a.783.783 0 00-.785.78v23.59a.791.791 0 00.785.79h2.419a4.974 4.974 0 009.823 0h11.252a4.974 4.974 0 009.824 0h2.782a.791.791 0 00.785-.79v-14.08a8.094 8.094 0 00-8.076-8.09zm-21.475 25.58a3.41 3.41 0 113.4-3.41 3.411 3.411 0 01-3.4 3.41zm21.075 0a3.411 3.411 0 01-3.4-3.41 3.4 3.4 0 113.4 3.41zm.4-22.44h-4.3a.791.791 0 00-.785.79v7.39a.791.791 0 00.785.79H849a.792.792 0 00.786-.79v-3.23a4.949 4.949 0 00-4.943-4.95zm3.367 7.39h-6.882v-5.81h3.515a3.371 3.371 0 013.367 3.37v2.44zm-24.842 9.61a2.03 2.03 0 102.024 2.03 2.029 2.029 0 00-2.024-2.03zm0 2.49a.46.46 0 01-.455-.46.455.455 0 01.909 0 .46.46 0 01-.454.46zm21.075-2.49a2.03 2.03 0 102.025 2.03 2.03 2.03 0 00-2.025-2.03zm0 2.49a.46.46 0 01-.454-.46.454.454 0 01.908 0 .46.46 0 01-.454.46zm4.552-8.37a.783.783 0 00-.785.78v1.99a.786.786 0 101.571 0v-1.99a.784.784 0 00-.781-.78z" transform="translate(-803.812 -1020.56)"/></svg><svg viewBox="0 0 180 210" id="filter-icon" xmlns="http://www.w3.org/2000/svg"><path d="M0 0h180v20l-70 90v100l-40-20v-80L0 20V0"/></svg><svg viewBox="0 0 360.49 360.49" id="grid" xmlns="http://www.w3.org/2000/svg"><path d="M96.653 0H13.061C7.29 0 2.612 4.678 2.612 10.449v83.592c0 5.771 4.678 10.449 10.449 10.449h83.592c5.771 0 10.449-4.678 10.449-10.449V10.449C107.102 4.678 102.424 0 96.653 0zM222.041 0h-83.592C132.678 0 128 4.678 128 10.449v83.592c0 5.771 4.678 10.449 10.449 10.449h83.592c5.771 0 10.449-4.678 10.449-10.449V10.449C232.49 4.678 227.812 0 222.041 0zM96.653 125.388H13.061c-5.771 0-10.449 4.678-10.449 10.449v83.592c0 5.771 4.678 10.449 10.449 10.449h83.592c5.771 0 10.449-4.678 10.449-10.449v-83.592c0-5.771-4.678-10.449-10.449-10.449zM222.041 125.388h-83.592c-5.771 0-10.449 4.678-10.449 10.449v83.592c0 5.771 4.678 10.449 10.449 10.449h83.592c5.771 0 10.449-4.678 10.449-10.449v-83.592c0-5.771-4.678-10.449-10.449-10.449zM347.429 0h-83.592c-5.771 0-10.449 4.678-10.449 10.449v83.592c0 5.771 4.678 10.449 10.449 10.449h83.592c5.771 0 10.449-4.678 10.449-10.449V10.449C357.878 4.678 353.199 0 347.429 0zM347.429 125.388h-83.592c-5.771 0-10.449 4.678-10.449 10.449v83.592c0 5.771 4.678 10.449 10.449 10.449h83.592c5.771 0 10.449-4.678 10.449-10.449v-83.592c0-5.771-4.679-10.449-10.449-10.449zM96.653 256H13.061c-5.771 0-10.449 4.678-10.449 10.449v83.592c0 5.771 4.678 10.449 10.449 10.449h83.592c5.771 0 10.449-4.678 10.449-10.449v-83.592c0-5.771-4.678-10.449-10.449-10.449zM222.041 256h-83.592c-5.771 0-10.449 4.678-10.449 10.449v83.592c0 5.771 4.678 10.449 10.449 10.449h83.592c5.771 0 10.449-4.678 10.449-10.449v-83.592c0-5.771-4.678-10.449-10.449-10.449zM347.429 256h-83.592c-5.771 0-10.449 4.678-10.449 10.449v83.592c0 5.771 4.678 10.449 10.449 10.449h83.592c5.771 0 10.449-4.678 10.449-10.449v-83.592c0-5.771-4.679-10.449-10.449-10.449z"/></svg><svg xmlns:svgjs="http://svgjs.com/svgjs" viewBox="0 0.742 19 16.515" id="like-icon" xmlns="http://www.w3.org/2000/svg"><svg width="19" height="18" viewBox="1.983 1.721 17.859 15.523"><path paint-order="stroke fill markers" fill-rule="evenodd" d="M10.913 17.244a.707.707 0 01-.28-.056c-.353-.15-8.65-3.75-8.65-10.76.091-2.65 2.207-4.707 4.818-4.707 1.743 0 3.266.918 4.112 2.31a4.796 4.796 0 014.112-2.31c2.61 0 4.725 2.058 4.817 4.684 0 7.034-8.297 10.634-8.65 10.783a.71.71 0 01-.28.056zM6.8 3.106c-1.847 0-3.343 1.47-3.408 3.346 0 5.408 6.125 8.663 7.52 9.335 1.395-.672 7.52-3.93 7.52-9.358-.065-1.853-1.563-3.323-3.408-3.323s-3.342 1.47-3.408 3.346a.7.7 0 01-.704.67.7.7 0 01-.705-.67C10.143 4.576 8.646 3.106 6.8 3.106z"/></svg></svg><svg viewBox="0 0 24 24" id="list" xmlns="http://www.w3.org/2000/svg"><path d="M5 0H1a1 1 0 00-1 1v4a1 1 0 001 1h4a1 1 0 001-1V1a1 1 0 00-1-1zM23 0H9a1 1 0 00-1 1v4a1 1 0 001 1h14a1 1 0 001-1V1a1 1 0 00-1-1zM5 9H1a1 1 0 00-1 1v4a1 1 0 001 1h4a1 1 0 001-1v-4a1 1 0 00-1-1zM23 9H9a1 1 0 00-1 1v4a1 1 0 001 1h14a1 1 0 001-1v-4a1 1 0 00-1-1zM5 18H1a1 1 0 00-1 1v4a1 1 0 001 1h4a1 1 0 001-1v-4a1 1 0 00-1-1zM23 18H9a1 1 0 00-1 1v4a1 1 0 001 1h14a1 1 0 001-1v-4a1 1 0 00-1-1z"/></svg><svg xmlns:svgjs="http://svgjs.com/svgjs" viewBox="0 0.5 21 21" id="menu-icon" xmlns="http://www.w3.org/2000/svg"><svg width="21" height="22" viewBox="2 1.589 20.029 20.029"><path paint-order="stroke fill markers" fill-rule="evenodd" d="M4.146 5.88A2.144 2.144 0 012 3.736c0-1.187.96-2.146 2.146-2.146 1.187 0 2.146.959 2.146 2.146 0 1.186-.96 2.146-2.146 2.146zm0 7.87A2.145 2.145 0 012 11.603c0-1.186.96-2.145 2.146-2.145a2.145 2.145 0 110 4.292zm0 7.868A2.144 2.144 0 012 19.472c0-1.187.96-2.146 2.146-2.146 1.187 0 2.146.96 2.146 2.146 0 1.187-.96 2.146-2.146 2.146zM12.014 5.88a2.144 2.144 0 01-2.146-2.146c0-1.187.96-2.146 2.146-2.146 1.187 0 2.146.959 2.146 2.146a2.144 2.144 0 01-2.146 2.146zm0 7.869a2.145 2.145 0 01-2.146-2.147c0-1.186.96-2.145 2.146-2.145 1.187 0 2.146.959 2.146 2.145a2.145 2.145 0 01-2.146 2.147zm0 7.868a2.144 2.144 0 01-2.146-2.146c0-1.187.96-2.146 2.146-2.146 1.187 0 2.146.96 2.146 2.146a2.144 2.144 0 01-2.146 2.146zM19.883 5.88a2.144 2.144 0 01-2.146-2.146c0-1.187.96-2.146 2.146-2.146 1.187 0 2.146.959 2.146 2.146 0 1.186-.96 2.146-2.146 2.146zm0 7.869a2.145 2.145 0 01-2.146-2.147c0-1.186.96-2.145 2.146-2.145a2.145 2.145 0 110 4.292zm0 7.868a2.144 2.144 0 01-2.146-2.146c0-1.187.96-2.146 2.146-2.146 1.187 0 2.146.96 2.146 2.146 0 1.187-.96 2.146-2.146 2.146z"/></svg></svg><svg viewBox="0 0 30 18" id="mobile-btn" xmlns="http://www.w3.org/2000/svg"><path d="M0 0h30v2H0V0zM0 8h30v2H0V8zM0 16h30v2H0z"/></svg><svg viewBox="0 0 350 350" id="person" xmlns="http://www.w3.org/2000/svg"><path d="M173.106 9.726c30.283 0 54.919 24.635 54.919 54.919v23.88c0 30.284-24.636 54.92-54.92 54.92-30.283 0-54.918-24.636-54.918-54.92v-23.88c0-30.284 24.635-54.92 54.919-54.92m0-11.67c-36.625 0-66.59 29.965-66.59 66.59v23.88c0 36.625 29.965 66.59 66.59 66.59 36.624 0 66.589-29.965 66.589-66.59v-23.88c0-36.625-29.965-66.59-66.59-66.59zM212.371 176.396c43.479 8.216 75.844 46.902 75.844 91.42v68.67H57.997v-68.67c0-44.518 32.364-83.204 75.843-91.42 12.413 5.793 25.604 8.73 39.266 8.73s26.852-2.937 39.265-8.73m-1.77-12.132c-11.265 5.835-23.997 9.192-37.495 9.192s-26.23-3.357-37.496-9.192c-50.345 7.511-89.283 51.2-89.283 103.547v68.88c0 6.306 5.158 11.46 11.46 11.46h230.638c6.305 0 11.46-5.157 11.46-11.46v-68.876c0-52.351-38.94-96.036-89.284-103.551z"/></svg><svg viewBox="0 0 22 25" id="play" xmlns="http://www.w3.org/2000/svg"><path fill-rule="evenodd" d="M20.684 14.74L4.64 24.536a3.236 3.236 0 01-3.062.144c-.972-.47-1.579-1.387-1.579-2.385V2.7c0-.999.607-1.917 1.579-2.386A3.24 3.24 0 014.64.457l16.044 9.798c.822.502 1.315 1.343 1.315 2.241 0 .9-.493 1.741-1.315 2.244z"/></svg><svg xmlns:svgjs="http://svgjs.com/svgjs" viewBox="0 0 17 17" id="search-icon" xmlns="http://www.w3.org/2000/svg"><svg width="17" height="17" viewBox="1.705 1.996 15.296 15.296"><path paint-order="stroke fill markers" fill-rule="evenodd" d="M4.702 8.076c.356-.065.68.13.746.484a2.65 2.65 0 00.78 1.49c.42.388.941.677 1.493.776.325.066.552.39.487.743a.643.643 0 01-.714.516 4.2 4.2 0 01-2.143-1.13 4.164 4.164 0 01-1.136-2.137c-.065-.354.128-.676.487-.742zm3.278-6.08c3.465 0 6.279 2.8 6.279 6.257 0 .93-.203 1.812-.568 2.604l2.336 2.036c1.703 1.747.746 3.266.294 3.717-.422.454-1.994 1.415-3.73-.292l-2.06-2.35c-.78.345-1.64.539-2.548.539-3.468 0-6.278-2.802-6.278-6.257 0-3.456 2.807-6.254 6.275-6.254zm5.546 13.517c.293.324 1.126.867 1.88.226.21-.176.634-1.068-.227-1.873l-2.162-1.88a6.269 6.269 0 01-1.363 1.34l1.872 2.187zM7.98 13.201c2.742 0 4.966-2.216 4.966-4.948S10.722 3.305 7.98 3.305 3.015 5.521 3.015 8.253s2.22 4.948 4.965 4.948z"/></svg></svg><svg viewBox="0 0 49.125 49.13" id="time" xmlns="http://www.w3.org/2000/svg"><defs><style>.qcls-1{fill:#a3bbc8;fill-rule:evenodd}</style></defs><path class="qcls-1" d="M45.406 11.58a.937.937 0 00-1.592.99 22.684 22.684 0 01-32.86 30.14.938.938 0 00-1.125 1.5 24.559 24.559 0 0035.577-32.63zm-23.03 21.94h-7.55l4.743-4.75a12.68 12.68 0 003.744-9.03 5.844 5.844 0 10-11.688 0 .938.938 0 001.875 0 3.969 3.969 0 117.938 0 10.836 10.836 0 01-3.195 7.71l-6.344 6.34a.949.949 0 00-.2 1.03.93.93 0 00.866.57h9.813a.935.935 0 10-.002-1.87zm15.039-6.44h-2.6v-1.52a.938.938 0 00-1.875 0v1.52h-5.286l5.286-8.85v4.21a.938.938 0 101.875 0v-7.62a.957.957 0 00-.456-.8.94.94 0 00-1.286.33l-7.875 13.19a.933.933 0 00-.011.94.951.951 0 00.816.48h6.938v5.5a.938.938 0 001.875 0v-5.5h2.6a.94.94 0 00-.001-1.88zm5.33-22.63a.938.938 0 10-1.875.04l.042 1.75A24.556 24.556 0 007.363 42.09a.93.93 0 00.656.27.92.92 0 00.669-.28.942.942 0 00-.013-1.33A22.679 22.679 0 0124.557 1.88a22.745 22.745 0 0115.107 5.77l-1.843.04a.935.935 0 00.022 1.87h.023l4.06-.09a.934.934 0 00.915-.96z"/></svg><svg viewBox="0 0 22 25" id="video-play" xmlns="http://www.w3.org/2000/svg"><defs><style>.rcls-1{fill:#fff;fill-rule:evenodd}</style></defs><path id="rForm_24" data-name="Form 24" class="rcls-1" d="M970.684 3900.74l-16.044 9.8a3.228 3.228 0 01-3.062.14 2.685 2.685 0 01-1.579-2.39v-19.59a2.685 2.685 0 011.579-2.39 3.258 3.258 0 013.062.15l16.044 9.79a2.666 2.666 0 011.316 2.25 2.638 2.638 0 01-1.316 2.24z" transform="translate(-950 -3886)"/></svg><svg viewBox="0 0 98 98" id="video-sircle-1" xmlns="http://www.w3.org/2000/svg"><defs><style>.scls-1{fill:#a3bbc8}</style></defs><circle class="scls-1" cx="49" cy="49" r="49"/></svg><svg viewBox="0 0 127 127" id="video-sircle-2" xmlns="http://www.w3.org/2000/svg"><defs><style>.tcls-1{fill:#a3bbc8;opacity:.4}</style></defs><circle class="tcls-1" cx="63.5" cy="63.5" r="63.5"/></svg></svg>